<?xml version="1.0" encoding="utf-8"?>
<!-- Svg Vector Icons : http://www.onlinewebfonts.com/icon -->
<!DOCTYPE svg PUBLIC "-//W3C//DTD SVG 1.1//EN" "http://www.w3.org/Graphics/SVG/1.1/DTD/svg11.dtd">
<svg version="1.1" xmlns="http://www.w3.org/2000/svg" xmlns:xlink="http://www.w3.org/1999/xlink" x="0px" y="0px" viewBox="0 0 1000 1000" enable-background="new 0 0 1000 1000" xml:space="preserve">
<metadata> Svg Vector Icons : http://www.onlinewebfonts.com/icon </metadata>
<g><path d="M497.4,310.2c-106.8,0-193.3,86.6-193.3,193.3c0,106.8,86.6,193.3,193.3,193.3c106.8,0,193.3-86.5,193.3-193.3C690.8,396.8,604.2,310.2,497.4,310.2z M497.4,673.2c-93.7,0-169.7-76-169.7-169.7c0-93.7,76-169.7,169.7-169.7c93.7,0,169.7,76,169.7,169.7C667.1,597.2,591.2,673.2,497.4,673.2z"/><path d="M500,10C229.4,10,10,229.4,10,500c0,270.6,219.4,490,490,490s490-219.4,490-490C990,229.4,770.6,10,500,10z M214.4,726.1l-59.8,0.6l14.6-285.2C84.8,421.9,106,305,112.6,252.1h15.5l5.7,110.4h15l5.6-110.4H170l5.6,110.4h14.8l5.6-110.4h15.5l5.6,110.4h14.2l5.7-110.4h15.5c4.5,54.9,27.8,170.2-56.8,189.5L214.4,726.1z M497.4,757.3c-140.2,0-253.8-113.6-253.8-253.8c0-140.2,113.6-253.8,253.8-253.8c140.2,0,253.8,113.6,253.8,253.8C751.3,643.7,637.6,757.3,497.4,757.3z M827.7,447l16.7,285.2l-60-0.6L801.1,447c-36.7-8.3-64.6-50.9-64.6-102.3c0-57.3,34.8-103.8,77.8-103.8c42.9,0,77.8,46.5,77.8,103.8C892.1,395.9,864.3,438.5,827.7,447z"/></g>
</svg>